<?xml version="1.0" encoding="utf-8"?>
<!-- Generator: Adobe Illustrator 16.0.3, SVG Export Plug-In . SVG Version: 6.00 Build 0)  -->
<!DOCTYPE svg PUBLIC "-//W3C//DTD SVG 1.1//EN" "http://www.w3.org/Graphics/SVG/1.1/DTD/svg11.dtd">
<svg version="1.1" xmlns="http://www.w3.org/2000/svg" xmlns:xlink="http://www.w3.org/1999/xlink" x="0px" y="0px" width="612px"
	 height="792px" viewBox="0 0 612 792" enable-background="new 0 0 612 792" xml:space="preserve">
<g id="boundary">
	<rect x="17.364" y="15.857" fill="none" stroke="#ff0ff0" stroke-miterlimit="10" width="581.818" height="764.935"/>
	<rect x="93" y="439" fill="none" stroke="#38499E" stroke-miterlimit="10" width="16.952" height="16.952"/>
</g>
<g id="cement">
	<rect x="360.831" y="745.727" fill="none" stroke="#000000" stroke-miterlimit="10" width="205.195" height="6.494"/>
</g>
<g id="background">
	<rect x="47.844" y="745.727" fill="none" stroke="#000000" stroke-miterlimit="10" width="205.195" height="6.494"/>
	<line fill="none" stroke="#000000" stroke-miterlimit="10" x1="352.429" y1="688.584" x2="481" y2="619.753"/>
	<ellipse fill="#DC5726" stroke="#0B7139" stroke-miterlimit="10" cx="259.572" cy="370.402" rx="92.857" ry="79.221"/>
	<polygon fill="#D7DC23" stroke="#38499E" stroke-miterlimit="10" points="526.58,279.01 470.748,324.714 403.252,299.215 
		391.586,228.012 447.418,182.308 514.914,207.807 	"/>
	<polygon fill="#D7DC23" stroke="#38499E" stroke-miterlimit="10" points="240.094,189.101 175.679,168.687 122.344,210.177 
		121.854,142.606 65.913,104.703 130.024,83.356 148.786,18.44 188.899,72.818 256.436,70.601 217.115,125.555 	"/>
	<g>
		<line fill="none" x1="136.599" y1="522.084" x2="139.599" y2="502.585"/>
		<circle fill="none" cx="136.599" cy="522.084" r="16.44"/>
		<circle fill="none" cx="136.599" cy="522.084" r="19.729"/>
		<polyline fill="none" points="136.599,522.084 170.778,614.291 136.599,522.084 102.419,429.877 136.599,522.084 44.392,556.264 
			136.599,522.084 228.806,487.904 136.599,522.084 126.747,578.299 136.599,522.084 146.451,465.869 136.599,522.084 
			80.384,512.232 136.599,522.084 192.813,531.936 136.599,522.084 127.141,576.188 136.599,522.084 146.057,467.979 
			136.599,522.084 82.494,512.626 136.599,522.084 190.703,531.542 136.599,522.084 127.721,533.943 136.599,522.084 
			145.476,510.225 136.599,522.084 124.739,513.206 136.599,522.084 148.458,530.962 136.599,522.084 132.977,529.431 
			136.599,522.084 140.221,514.737 136.599,522.084 129.251,518.462 136.599,522.084 143.946,525.706 136.599,522.084 
			196.935,587.289 136.599,522.084 76.263,456.879 136.599,522.084 71.394,582.42 136.599,522.084 201.803,461.748 136.599,522.084 
			115.275,574.938 136.599,522.084 157.922,469.23 136.599,522.084 83.745,500.761 136.599,522.084 189.453,543.407 
			136.599,522.084 155.401,569.682 136.599,522.084 117.796,474.486 136.599,522.084 89.001,540.887 136.599,522.084 
			184.196,503.281 136.599,522.084 126.323,569.542 136.599,522.084 146.875,474.626 136.599,522.084 89.141,511.808 
			136.599,522.084 184.057,532.36 136.599,522.084 155.221,596.504 136.599,522.084 117.976,447.664 136.599,522.084 
			62.179,540.706 136.599,522.084 211.019,503.462 136.599,522.084 166.766,592.225 136.599,522.084 106.432,451.943 
			136.599,522.084 66.458,552.251 136.599,522.084 206.74,491.917 136.599,522.084 165.043,557.132 136.599,522.084 
			108.154,487.036 136.599,522.084 101.551,550.529 136.599,522.084 171.646,493.64 136.599,522.084 105.76,568.708 
			136.599,522.084 167.438,475.46 136.599,522.084 89.975,491.245 136.599,522.084 183.223,552.923 136.599,522.084 93.64,576.458 
			136.599,522.084 179.558,467.71 136.599,522.084 82.224,479.125 136.599,522.084 190.973,565.043 136.599,522.084 
			108.332,567.164 136.599,522.084 164.866,477.004 136.599,522.084 91.519,493.817 136.599,522.084 181.678,550.351 		"/>
		<radialGradient id="SVGID_1_" cx="136.5986" cy="522.084" r="39.457" gradientUnits="userSpaceOnUse">
			<stop  offset="0" style="stop-color:#000000"/>
			<stop  offset="0.73" style="stop-color:#93432A"/>
			<stop  offset="1" style="stop-color:#000000"/>
		</radialGradient>
		<circle opacity="0.15" fill="url(#SVGID_1_)" cx="136.599" cy="522.084" r="39.457"/>
		<radialGradient id="SVGID_2_" cx="136.5986" cy="522.084" r="19.7285" gradientUnits="userSpaceOnUse">
			<stop  offset="0.15" style="stop-color:#FFFFFF"/>
			<stop  offset="0.2134" style="stop-color:#D7C0BE"/>
			<stop  offset="0.2931" style="stop-color:#B68A8A"/>
			<stop  offset="0.362" style="stop-color:#A16A6B"/>
			<stop  offset="0.4166" style="stop-color:#95585B"/>
			<stop  offset="0.45" style="stop-color:#915155"/>
			<stop  offset="0.5442" style="stop-color:#78312F"/>
			<stop  offset="0.6472" style="stop-color:#5C0E05"/>
			<stop  offset="0.7362" style="stop-color:#410000"/>
			<stop  offset="0.8068" style="stop-color:#200000"/>
			<stop  offset="0.85" style="stop-color:#000000"/>
			<stop  offset="0.856" style="stop-color:#120000"/>
			<stop  offset="0.8623" style="stop-color:#300000"/>
			<stop  offset="0.8686" style="stop-color:#470000"/>
			<stop  offset="0.875" style="stop-color:#5C0000"/>
			<stop  offset="0.8815" style="stop-color:#751400"/>
			<stop  offset="0.888" style="stop-color:#912A15"/>
			<stop  offset="0.8945" style="stop-color:#B44126"/>
			<stop  offset="0.9" style="stop-color:#D65836"/>
			<stop  offset="0.9063" style="stop-color:#BD472B"/>
			<stop  offset="0.916" style="stop-color:#9D311B"/>
			<stop  offset="0.9262" style="stop-color:#801D09"/>
			<stop  offset="0.9367" style="stop-color:#690900"/>
			<stop  offset="0.9475" style="stop-color:#530000"/>
			<stop  offset="0.9588" style="stop-color:#410000"/>
			<stop  offset="0.9707" style="stop-color:#290000"/>
			<stop  offset="0.9838" style="stop-color:#0F0000"/>
			<stop  offset="1" style="stop-color:#000000"/>
		</radialGradient>
		<circle opacity="0.5" fill="url(#SVGID_2_)" cx="136.599" cy="522.084" r="19.729"/>
		<radialGradient id="SVGID_3_" cx="136.5986" cy="522.084" r="16.4404" gradientUnits="userSpaceOnUse">
			<stop  offset="0.15" style="stop-color:#FFFFFF"/>
			<stop  offset="0.2824" style="stop-color:#9C9593"/>
			<stop  offset="0.4253" style="stop-color:#5A5250"/>
			<stop  offset="0.5636" style="stop-color:#302A28"/>
			<stop  offset="0.6936" style="stop-color:#0F0704"/>
			<stop  offset="0.8134" style="stop-color:#000000"/>
			<stop  offset="0.9192" style="stop-color:#000000"/>
			<stop  offset="1" style="stop-color:#000000"/>
		</radialGradient>
		<circle fill="url(#SVGID_3_)" cx="136.599" cy="522.084" r="16.44"/>
		<polyline opacity="0.03" fill="none" stroke="#FFFFFF" stroke-width="2" stroke-miterlimit="10" points="136.599,522.084 
			170.778,614.291 136.599,522.084 102.419,429.877 136.599,522.084 44.392,556.264 136.599,522.084 228.806,487.904 
			136.599,522.084 126.747,578.299 136.599,522.084 146.451,465.869 136.599,522.084 80.384,512.232 136.599,522.084 
			192.813,531.936 136.599,522.084 127.141,576.188 136.599,522.084 146.057,467.979 136.599,522.084 82.494,512.626 
			136.599,522.084 190.703,531.542 136.599,522.084 127.721,533.943 136.599,522.084 145.476,510.225 136.599,522.084 
			124.739,513.206 136.599,522.084 148.458,530.962 136.599,522.084 132.977,529.431 136.599,522.084 140.221,514.737 
			136.599,522.084 129.251,518.462 136.599,522.084 143.946,525.706 136.599,522.084 196.935,587.289 136.599,522.084 
			76.263,456.879 136.599,522.084 71.394,582.42 136.599,522.084 201.803,461.748 136.599,522.084 115.275,574.938 136.599,522.084 
			157.922,469.23 136.599,522.084 83.745,500.761 136.599,522.084 189.453,543.407 136.599,522.084 155.401,569.682 
			136.599,522.084 117.796,474.486 136.599,522.084 89.001,540.887 136.599,522.084 184.196,503.281 136.599,522.084 
			126.323,569.542 136.599,522.084 146.875,474.626 136.599,522.084 89.141,511.808 136.599,522.084 184.057,532.36 
			136.599,522.084 155.221,596.504 136.599,522.084 117.976,447.664 136.599,522.084 62.179,540.706 136.599,522.084 
			211.019,503.462 136.599,522.084 166.766,592.225 136.599,522.084 106.432,451.943 136.599,522.084 66.458,552.251 
			136.599,522.084 206.74,491.917 136.599,522.084 165.043,557.132 136.599,522.084 108.154,487.036 136.599,522.084 
			101.551,550.529 136.599,522.084 171.646,493.64 136.599,522.084 105.76,568.708 136.599,522.084 167.438,475.46 136.599,522.084 
			89.975,491.245 136.599,522.084 183.223,552.923 136.599,522.084 93.64,576.458 136.599,522.084 179.558,467.71 136.599,522.084 
			82.224,479.125 136.599,522.084 190.973,565.043 136.599,522.084 108.332,567.164 136.599,522.084 164.866,477.004 
			136.599,522.084 91.519,493.817 136.599,522.084 181.678,550.351 		"/>
	</g>
	<path opacity="0.8" fill="none" stroke="#38499E" stroke-miterlimit="10" d="M51.816,455.952c0,24.952-9.616,45.144-21.5,45.144"/>
	<path fill="none" stroke="#38499E" stroke-miterlimit="10" d="M189,447.5c3.728,14.912-5.338,30.022-20.25,33.75
		c-11.929,2.982-24.018-4.271-27-16.2c-2.386-9.543,3.417-19.214,12.96-21.6c7.635-1.909,15.372,2.733,17.28,10.368
		c1.527,6.107-2.187,12.297-8.295,13.823c-4.886,1.222-9.837-1.749-11.059-6.635c-0.977-3.909,1.4-7.87,5.309-8.848
		c3.127-0.782,6.296,1.12,7.078,4.247c0.625,2.502-0.896,5.036-3.398,5.662c-2.001,0.5-4.029-0.717-4.529-2.718"/>
	<g>
		<rect x="223" y="497" fill="none" stroke="#38499E" stroke-miterlimit="10" width="43.75" height="46.75"/>
		<line fill="none" stroke="#38499E" stroke-miterlimit="10" x1="223" y1="535.954" x2="266.75" y2="535.954"/>
		<line fill="none" stroke="#38499E" stroke-miterlimit="10" x1="223" y1="528.171" x2="266.75" y2="528.171"/>
		<line fill="none" stroke="#38499E" stroke-miterlimit="10" x1="223" y1="520.375" x2="266.75" y2="520.375"/>
		<line fill="none" stroke="#38499E" stroke-miterlimit="10" x1="223" y1="512.579" x2="266.75" y2="512.579"/>
		<line fill="none" stroke="#38499E" stroke-miterlimit="10" x1="223" y1="504.796" x2="266.75" y2="504.796"/>
		<line fill="none" stroke="#38499E" stroke-miterlimit="10" x1="259.455" y1="497" x2="259.455" y2="543.75"/>
		<line fill="none" stroke="#38499E" stroke-miterlimit="10" x1="252.17" y1="497" x2="252.17" y2="543.75"/>
		<line fill="none" stroke="#38499E" stroke-miterlimit="10" x1="244.875" y1="497" x2="244.875" y2="543.75"/>
		<line fill="none" stroke="#38499E" stroke-miterlimit="10" x1="237.58" y1="497" x2="237.58" y2="543.75"/>
		<line fill="none" stroke="#38499E" stroke-miterlimit="10" x1="230.295" y1="497" x2="230.295" y2="543.75"/>
	</g>
	<path fill="none" stroke="#38499E" stroke-miterlimit="10" d="M43,443.75c4.374,1.201,9.905,0.014,14.382-0.006
		c2.022-0.009,4.058-0.057,6.08-0.01c3.112,0.073,5.585,1.158,8.577,1.628c3.885,0.609,5.84,0.017,6.975,4.102
		c0.89,3.203,1.232,6.588,1.236,9.967c0.005,4.746-1.762,7.353-4.073,11.319c-2.663,4.57-2.427,9.298-2.427,14.453
		c0,7.127-0.275,13.892-2.643,20.625c-1.369,3.894-0.509,8.3-3.719,11.342c-1.294,1.228-5.093,3.085-6.888,3.33"/>
	<line fill="none" stroke="#38499E" stroke-width="5" stroke-miterlimit="10" x1="37" y1="565.75" x2="63" y2="538.524"/>
</g>
</svg>
